<svg xmlns="http://www.w3.org/2000/svg" viewBox="0 0 586.07 429.83"><defs><style>.cls-1,.cls-2{fill:#16365b;}.cls-2{font-size:76px;font-family:Malacitana-Bold, Malacitana;font-weight:700;}.cls-3{letter-spacing:-0.04em;}.cls-4{fill:#00adca;}.cls-5{fill:none;stroke:#16365b;stroke-miterlimit:10;stroke-width:7px;}</style></defs><g id="Capa_2" data-name="Capa 2"><g id="Capa_1-2" data-name="Capa 1"><path class="cls-1" d="M237.84,429.83H98.27c-13.65,0-24.72-12.35-24.72-27.58V380.41c0-1.84.17-11.61,7.24-19.51a23.44,23.44,0,0,1,17.48-8.07H237.84c13.65,0,24.71,12.34,24.71,27.58v21.84C262.55,417.48,251.49,429.83,237.84,429.83Z"/><rect class="cls-1" x="86.05" y="59.33" width="60" height="337" rx="30"/><rect class="cls-1" x="129.05" y="144.33" width="60" height="234.49" rx="30"/><rect class="cls-1" x="175.05" y="159.7" width="60" height="221.04" rx="30"/><path class="cls-1" d="M227.05,385.54c-2.61-2.63-3.16-5.81-4-21.14-.52-9.64-.82-17.83-1-24V211.6c0-15.93,13.44-28.83,30-28.83s30,12.9,30,28.83V340.37c-.09,2.16-2.09,35.95-26,46.13C247.78,390,233.59,392.13,227.05,385.54Z"/><rect class="cls-1" x="34.47" y="226.03" width="60" height="178.4" rx="30" transform="translate(-171.47 96.45) rotate(-35.6)"/><path class="cls-1" d="M46.05,274.33c2.35-5.17,35.49,9.84,47-4,5-6,2.93-13.72,5-14,5-.69,22.86,43.05,11,53C94.91,321.2,43,281.16,46.05,274.33Z"/><text class="cls-2" transform="translate(303.89 335.49)">My<tspan class="cls-3" x="109.29" y="0">T</tspan><tspan x="149.03" y="0">urn!</tspan></text><rect class="cls-4" x="61.59" y="20.51" width="6.94" height="40.1" rx="3.47" transform="translate(-10.85 51.36) rotate(-40.04)"/><rect class="cls-4" x="155.97" y="21" width="6.94" height="40.1" rx="3.47" transform="translate(55.41 -86.56) rotate(36.38)"/><rect class="cls-4" x="110.97" width="6.94" height="40.1" rx="3.47"/><line class="cls-5" x1="340.55" y1="362.33" x2="583.05" y2="362.33"/></g></g></svg>