<?xml version="1.0" encoding="utf-8"?>
<!-- Generator: Adobe Illustrator 25.4.1, SVG Export Plug-In . SVG Version: 6.00 Build 0)  -->
<svg version="1.1" id="Capa_1" xmlns="http://www.w3.org/2000/svg" xmlns:xlink="http://www.w3.org/1999/xlink" x="0px" y="0px"
	 viewBox="0 0 456 338.3" style="enable-background:new 0 0 456 338.3;" xml:space="preserve">
<style type="text/css">
	.st0{fill:#00ADCA;}
	.st1{fill:#F2F2F2;}
	.st2{fill:#403E56;}
	.st3{fill:#F6B6B9;}
	.st4{fill:#302F42;}
	.st5{fill:#A1626A;}
	.st6{fill:#CDCCCC;}
	.st7{fill:#FFFFFF;}
	.st8{fill:#00ADCA;stroke:#1D1D1B;stroke-miterlimit:10;}
</style>
<g id="Capa_2_00000137098511197169592710000010647860944685802430_">
	<g id="Capa_1-2">
		<path class="st0" d="M24.6,186C24.1,151.8-4,140.6,2.6,120.8c7.2-21.3,40.8-11.4,65.8-39.1C94,53.3,77.8,21.8,99,9.4
			c23.5-13.8,43.7,25,86.7,15.5c20.7-4.6,40.9-19.1,80.7-23.9c1.4-0.2,2.2-0.3,3.4-0.4c11.9-1.1,45.6-2.6,66.8,18.2
			c20.5,20.2,7.8,41.9,29.8,62.7c20.8,19.7,37.5,9.7,57.9,25.3c35.6,27.3,34.8,98.7,12.4,147.2c-7.6,16.5-25.8,55.8-59.5,62.3
			c-35.9,7-50.7-30.7-92.8-26.7c-39.3,3.8-47.9,38.8-79.7,34.4c-27.9-3.9-27.8-31.6-58.7-38.5c-33.2-7.4-46.3,21.8-81.3,15.7
			c-27.5-4.8-54.3-28.8-57.9-54.1C3.3,222.5,24.9,216,24.6,186z"/>
		<circle class="st1" cx="226.2" cy="34.3" r="3.5"/>
		<circle class="st1" cx="226.2" cy="48.1" r="3.5"/>
		<circle class="st1" cx="240.7" cy="34.3" r="3.5"/>
		<circle class="st1" cx="240.7" cy="48.1" r="3.5"/>
		<ellipse transform="matrix(0.1666 -0.986 0.986 0.1666 178.8955 280.195)" class="st1" cx="255.2" cy="34.3" rx="3.5" ry="3.5"/>
		
			<ellipse transform="matrix(0.1602 -0.9871 0.9871 0.1602 166.8524 292.2915)" class="st1" cx="255.2" cy="48.1" rx="3.5" ry="3.5"/>
		
			<ellipse transform="matrix(0.2076 -0.9782 0.9782 0.2076 141.6613 298.6986)" class="st1" cx="255.2" cy="61.9" rx="3.5" ry="3.5"/>
		
			<ellipse transform="matrix(0.1602 -0.9871 0.9871 0.1602 139.5792 315.4957)" class="st1" cx="255.2" cy="75.7" rx="3.5" ry="3.5"/>
		<circle class="st1" cx="269.7" cy="34.3" r="3.5"/>
		<circle class="st1" cx="269.7" cy="48.1" r="3.5"/>
		<circle class="st1" cx="269.7" cy="61.9" r="3.5"/>
		<circle class="st1" cx="269.7" cy="75.7" r="3.5"/>
		<circle class="st1" cx="284.2" cy="34.3" r="3.5"/>
		<circle class="st1" cx="283.4" cy="46.9" r="3.5"/>
		<circle class="st1" cx="298.6" cy="34.3" r="3.5"/>
		<circle class="st1" cx="298.6" cy="48.1" r="3.5"/>
		<path class="st2" d="M404.5,213.8h-25.7c0,0.7-26.5,1.3-26.5,1.3c-0.4,0.3-0.8,0.7-1.1,1.1c-1,1.2-1.6,2.7-1.6,4.3v1.1
			c0,3.7,3,6.7,6.7,6.7h48.2c3.7,0,6.7-3,6.7-6.7v-1.1C411.2,216.8,408.2,213.8,404.5,213.8z"/>
		<rect x="377.1" y="228" class="st2" width="7" height="45"/>
		<path class="st2" d="M403.9,272.8c0,0.8-10.6,0.3-23.6,0.3s-23.6,0.5-23.6-0.3s10.6-6.7,23.6-6.7S403.9,272,403.9,272.8z"/>
		<polygon class="st3" points="345.5,266.9 338.9,266.9 335.8,241.5 345.5,241.5 		"/>
		<path class="st4" d="M334.2,265h12.7v8h-20.6C326.2,268.6,329.8,265,334.2,265L334.2,265z"/>
		<polygon class="st3" points="335.2,263.2 329,261.2 333.6,236.1 342.8,239 		"/>
		<path class="st4" d="M325,258l12.1,3.8l0,0l-2.4,7.6l0,0l-19.7-6.2l0,0C316.3,259,320.8,256.7,325,258C325,258,325,258,325,258z"
			/>
		<path class="st4" d="M386.9,209.4c-0.2-1.3-0.4-2.5-0.8-3.8l-1.2-1.5l-3.2-4h-0.1c-0.2,0-1.2,0.1-2.7,0.2l0,0l-3.4,0.3l-1.1,0.1
			v5.6h6.7c0.7,0,1.2,0.5,1.3,1.2c0,0.1,0,0.1,0,0.2c0,0.7-0.6,1.3-1.3,1.3h-38.9c-0.5,0.3-1,0.7-1.4,1.1c-1.4,1.1-2.4,2.5-2.8,4.2
			c-2.3,10-6.4,28.6-7.6,34.1c-0.2,0.8,0.1,1.7,0.7,2.3c0.2,0.2,0.5,0.4,0.8,0.5l4.8,1.8c0.2,0.1,0.4,0.1,0.6,0.1h0.2
			c1,0,1.9-0.6,2.3-1.6l3.8-10l5.9-15.4l2.3-6.1c2.7,0.6,25.3,5.6,32.9-2.4c0.7-0.8,1.3-1.7,1.7-2.7
			C386.9,213.1,387.1,211.2,386.9,209.4z"/>
		<path class="st4" d="M393.4,210.8c-0.1-0.5-0.2-1-0.4-1.5l-4.4-5.6h-0.1c-0.3,0-1.6,0.1-3.6,0.3c-2.3,0.2-5.5,0.5-9.1,1h-0.3
			l-1.1,0.1v1h6.7c0.7,0,1.2,0.5,1.3,1.2c0,0.1,0,0.1,0,0.2c0,0.7-0.6,1.3-1.3,1.3h-23.7c-1,0.3-2,0.7-3,1.1c-5,2-8.8,4.6-9.5,8
			c-0.2,1.1-0.5,2.4-0.8,3.7c-1.1,4.9-2.5,11-3.7,16.5l0,0c-0.2,1.1-0.5,2.2-0.7,3.3c-1,4.6-1.9,8.5-2.4,10.6v0.2l0,0
			c-0.1,0.4,0,0.8,0.1,1.2l0,0c0.1,0.4,0.4,0.7,0.7,1c0.2,0.2,0.4,0.3,0.7,0.4l4.8,1.8c0.3,0.1,0.6,0.2,0.8,0.2
			c0.4,0,0.8-0.1,1.2-0.3c0.5-0.3,0.9-0.7,1.1-1.3l10.4-27.4l1.6-4.2c2.7,0.6,25.3,5.6,32.9-2.4c1.5-1.6,2.3-3.7,2.4-5.9
			C394,213.8,393.8,212.3,393.4,210.8z"/>
		<path class="st0" d="M392.8,163.5c-0.1-0.1-0.2-0.2-0.3-0.3c-2.9-3.1-7.1-4.5-11.2-4c-1.8,0.2-3.6,0.6-5.3,1
			c-2.3,0.6-4.3,1.7-6,3.4c-2.6,2.5-4.1,6.1-4,9.8c0,0.7,0,1.5,0,2.2c0,0.4,0,0.7,0,1.1h5.3c0.2,0,0.5,0,0.7,0.1
			c1.3,0.3,2.3,1.5,2.3,2.9v25l1.1,0.3l0.3,0.1l0.4,0.1c1.1,0.3,2.1,0.7,3.2,1.1h1.8c0.7,0,1.2,0.5,1.3,1.2l1.1,0.4
			c1.2,0.5,2.4,1,3.5,1.5c1.5,0.7,2.7,1.3,3.8,1.9c0.3,0.2,0.7,0.3,1.1,0.3c0.5,0,1-0.2,1.4-0.5l0.2-0.2c0.6-0.5,0.9-1.3,0.7-2.1
			c-0.5-4.2-0.7-8.5-0.5-12.7c0.1-3.6,0.5-7.2,0.9-10.8c0.2-1.9,0.5-3.8,0.7-5.6c0.2-1.7,0.5-3.4,0.8-4.9
			C396.8,170.6,395.6,166.5,392.8,163.5z"/>
		<path class="st0" d="M370.9,164c-0.3-0.1-0.6-0.2-0.9-0.3c-3-0.8-6,0.7-7.3,3.5l-3.7,8.5l-0.5,1.1h12.7c0.2,0,0.5,0,0.7,0.1l0.4-1
			l1.6-3.8C375.4,169,374,165.4,370.9,164z"/>
		<circle class="st3" cx="382.3" cy="141.9" r="13.2"/>
		<path class="st3" d="M395.3,179.6l-7.5,0.2l-0.5,5.3l-0.1,1.2l-11.8,5.3l-1.1,0.5v9.4l1.1-0.3l3.4-1l0,0l14.9-4.2l0.2-0.1
			c2.5-0.7,4.2-3,4.2-5.6v-6.2v-4.6L395.3,179.6z"/>
		<path class="st0" d="M397.8,169.2c-0.3-3.4-3.3-5.9-6.7-5.6c-3.2,0.3-5.7,3.1-5.6,6.3l0,0l0.8,13.4c0,0.7,0.4,1.4,1,1.8
			c0.4,0.3,1,0.5,1.6,0.5l5.8-0.4l1.7-0.1c0.6,0,1.2-0.3,1.7-0.8c0,0,0.1-0.1,0.1-0.2c0.3-0.5,0.5-1,0.5-1.6L397.8,169.2z"/>
		<path class="st2" d="M376,205.2h-0.7v-0.1l-1.1,0.1v1h5C378.2,205.9,377.1,205.5,376,205.2z M376,205.2h-0.7v-0.1l-1.1,0.1v1h5
			C378.2,205.9,377.1,205.5,376,205.2z M381,205.2h-5.6v-25.5c0-1.8-1.2-3.4-2.9-3.9c-0.4-0.1-0.7-0.2-1.1-0.2h-47.7
			c-2.2,0-4,1.8-4,4V206c0,2.2,1.8,4,4,4H381c1.3-0.1,2.3-1.2,2.3-2.6C383.2,206.2,382.2,205.2,381,205.2L381,205.2z M382.3,207.6
			c0,0.7-0.6,1.3-1.3,1.3h-57.4c-1.6,0-2.9-1.3-3-2.9v-26.3c0-1.6,1.3-2.9,3-2.9h47.7c0.2,0,0.5,0,0.7,0.1c1.3,0.3,2.3,1.5,2.3,2.9
			v26.5h6.7c0.7,0,1.2,0.5,1.3,1.2C382.3,207.5,382.3,207.5,382.3,207.6L382.3,207.6z M376,205.2h-0.7v-0.1l-1.1,0.1v1h5
			C378.2,205.9,377.1,205.5,376,205.2z"/>
		<circle class="st0" cx="347.5" cy="192.8" r="3.2"/>
		<path class="st4" d="M379.5,136.7c-3,2.7-7.1,5.7-10.9,3.7c-2.4-1.4-3.6-4.2-3-6.9c1-4.9,5.3-7.6,9.4-9.7
			c5.3-2.8,11.2-5.2,17.2-4.5s11.8,5.7,11.5,11.7c-0.2,4.8-4.2,9.4-2.9,14s7,6.5,11.9,6.8s10.2-0.2,14.1,2.8
			c4.9,3.8,4.9,11.7,1.3,16.9s-9.4,8-15.2,10.2c-7.7,2.9-16.2,5-24.1,2.9s-14.9-9.7-13.7-17.9c0.5-3.4,2.3-6.5,4-9.6
			s3.5-6.1,3.9-9.6c0.4-2.9-0.6-5.9-2.7-7.9C379.4,138.8,379.1,137.7,379.5,136.7L379.5,136.7z"/>
		<path class="st2" d="M8.8,273.7h414.6c0.4,0,0.6-0.3,0.6-0.6c0-0.4-0.3-0.6-0.6-0.6c0,0,0,0,0,0H8.8c-0.4,0-0.6,0.3-0.6,0.6l0,0
			C8.2,273.4,8.5,273.7,8.8,273.7L8.8,273.7z"/>
		<path class="st2" d="M29.9,220.5v1.1c0,3.7,3,6.7,6.7,6.7h48.3c3.7,0,6.7-3,6.7-6.7v-1.1c0-1.6-0.5-3.1-1.5-4.3
			c-0.3-0.4-0.7-0.8-1.1-1.1c0,0-26.5-0.6-26.5-1.3H36.6C32.9,213.8,29.9,216.8,29.9,220.5L29.9,220.5z"/>
		<rect x="57" y="228" class="st2" width="7" height="45"/>
		<path class="st2" d="M37.1,272.8c0,0.8,10.6,0.3,23.6,0.3s23.6,0.5,23.6-0.3S73.7,266,60.7,266S37.1,272,37.1,272.8z"/>
		<polygon class="st5" points="95.9,267.3 102.4,267.3 105.6,241.9 95.9,241.9 		"/>
		<path class="st4" d="M115.1,273.4H94.5v-8h12.7C111.6,265.4,115.2,268.9,115.1,273.4L115.1,273.4z"/>
		<polygon class="st5" points="106.1,263.6 112.4,261.6 107.8,236.5 98.6,239.4 		"/>
		<path class="st4" d="M126.3,263.6l-19.7,6.2l0,0l-2.4-7.6l0,0l12.1-3.8C120.5,257.1,125,259.5,126.3,263.6L126.3,263.6z"/>
		<path class="st4" d="M101.7,251.9l-12-31.6c-2.7,0.6-25.3,5.6-32.9-2.4c-2.6-2.8-3.1-6.8-1.5-11.9l4.4-5.6h0.1
			c1.7,0.1,41,2.3,43.7,14.1c2.3,10,6.4,28.6,7.6,34.1c0.3,1.2-0.4,2.4-1.5,2.8l-4.8,1.8c-0.3,0.1-0.6,0.2-0.8,0.1
			C103,253.5,102.1,252.8,101.7,251.9z"/>
		<path class="st4" d="M94.8,255.7l-12-31.6c-2.7,0.6-25.3,5.6-32.9-2.4c-2.6-2.8-3.1-6.8-1.5-11.9l4.4-5.6h0.1
			c1.7,0.1,41,2.3,43.7,14.1c2.3,10,6.4,28.6,7.6,34.1c0.3,1.2-0.4,2.4-1.5,2.8l-4.8,1.8C96.6,257.5,95.3,256.9,94.8,255.7
			L94.8,255.7z"/>
		<path class="st5" d="M84,194.4c-3.6,0-7-1.9-8.8-5l-3.8-6.5l9.1-5l3.9,5.3l26.2-2.8c0.1-0.2,0.3-0.5,0.4-0.7l0,0
			c2-2.6,5.7-3.1,8.3-1.1c2.6,2,3.1,5.7,1.1,8.3c-1.8,2.4-5.1,3-7.7,1.5c-0.2-0.1-0.4-0.2-0.6-0.4c-0.2-0.1-0.3-0.2-0.4-0.4l-25,6.4
			C85.7,194.3,84.9,194.4,84,194.4z"/>
		<path class="st6" d="M48.2,211.4c-0.7-0.5-1.1-1.4-1-2.3c1.5-9.8-0.2-23.9-1.9-34c-1.2-7.2,3.6-14.1,10.9-15.3
			c1.3-0.2,2.6-0.2,3.9-0.1c1.8,0.2,3.6,0.6,5.3,1l0,0c6,1.5,10.2,6.9,10,13.1c-0.2,9.7,1.7,21.9,2.6,26.6c0.1,0.7,0,1.3-0.4,1.9
			c-0.4,0.5-1,0.9-1.7,0.9c-9.6,1-19.8,5.6-25.1,8.3C49.9,212,48.9,211.9,48.2,211.4L48.2,211.4z"/>
		<path class="st6" d="M74,186.1c-0.6-0.2-1.1-0.7-1.3-1.3l-5.3-12.3c-1.4-3.1,0.1-6.8,3.2-8.1s6.8,0.1,8.1,3.2l0,0l5.3,12.3
			c0.5,1.2,0,2.6-1.3,3.2l-6.9,3C75.3,186.3,74.6,186.3,74,186.1L74,186.1z"/>
		<circle class="st5" cx="59.1" cy="142.3" r="13.2"/>
		<path class="st4" d="M51.1,154c-0.8,0.9-2.1,1-3,0.2l0,0c-2.9-2.4-5.3-5.4-6.8-8.9c-1.7-4.1-2-9.1,0-12.9c1.7-3.2,4.6-5.3,7.5-7
			c1.1-0.7,2.4-1.2,3.7-1.6c1.3-0.3,2.7,0,3.8,0.8c1.2,0.9,1.8,2.4,1.5,3.9c1.4-1.8,3.2-3.1,5.2-3.9c1.3-0.5,2.7-0.6,4-0.3
			c1.9,0.6,3.3,2.6,4.1,4.6c0.6,1.6,0.9,3.3,0.7,5c-0.2,1.6-1,3.1-2.3,4.1c-1.6,0.9-3.6,1.1-5.3,0.5c-1.8-0.6-3.6-1.1-5.4-1.5
			c-1.9-0.3-3.8,0.4-4.9,1.9c-0.7,1.3-1.1,2.7-1.1,4.1l-0.8,7.5c-0.1,1.1-0.3,2.1-0.7,3.1C51.3,153.8,51.2,153.9,51.1,154z"/>
		<path class="st6" d="M98.7,235.1H77.4c-0.7,0-1.4-0.3-1.8-0.9c-0.4-0.6-0.6-1.3-0.4-2c2-8.4,2-17.1,0-25.5c-0.2-0.7,0-1.4,0.4-2
			c0.4-0.5,1.1-0.9,1.8-0.9h21.4c1.1,0,2.1,0.8,2.3,1.9c1.4,9.1,1.4,18.3,0,27.3C100.8,234.3,99.9,235.1,98.7,235.1z"/>
		<path class="st7" d="M82.3,215.6v-0.6c0-0.9,0.7-1.6,1.6-1.6h11.2c0.9,0,1.6,0.7,1.6,1.6v0.6c0,0.9-0.7,1.6-1.6,1.6l0,0H83.9
			C83.1,217.2,82.3,216.4,82.3,215.6L82.3,215.6z"/>
		<path class="st7" d="M82.3,222.2v-0.6c0-0.9,0.7-1.6,1.6-1.6h11.2c0.9,0,1.6,0.7,1.6,1.6v0.6c0,0.9-0.7,1.6-1.6,1.6l0,0H83.9
			C83.1,223.8,82.3,223.1,82.3,222.2L82.3,222.2z"/>
		<path class="st8" d="M89.2,196.4c-0.4-0.6-0.6-1.3-0.4-2c2-8.5,2-17.4,0-25.9c-0.2-0.7,0-1.4,0.4-2c0.4-0.6,1.1-0.9,1.8-0.9h21.7
			c1.2,0,2.1,0.9,2.3,2c1.4,9.2,1.4,18.6,0,27.8c-0.2,1.1-1.1,2-2.3,2H91.1C90.3,197.4,89.6,197,89.2,196.4z"/>
		<path class="st7" d="M108.6,177.3H97.2c-0.9,0-1.6-0.7-1.6-1.6V175c0-0.9,0.7-1.6,1.6-1.6h11.4c0.9,0,1.6,0.7,1.6,1.6v0.7
			C110.2,176.6,109.5,177.3,108.6,177.3z"/>
		<path class="st7" d="M108.6,184H97.2c-0.9,0-1.6-0.7-1.6-1.6l0,0v-0.7c0-0.9,0.7-1.6,1.6-1.6l0,0h11.4c0.9,0,1.6,0.7,1.6,1.6l0,0
			v0.7C110.2,183.3,109.5,184,108.6,184L108.6,184z"/>
		<path class="st5" d="M79.3,208.2c-1.6-0.6-2.9-1.8-3.5-3.3c-0.1-0.2-0.1-0.4-0.2-0.5l-28-8c-2.5-0.7-4.2-3-4.2-5.6L43.2,180
			l10.3,0.3l0.7,6.5l24,10.8c0.2-0.1,0.5-0.3,0.7-0.4l0,0c3-1.3,6.5,0.1,7.8,3.1c1.3,3-0.1,6.5-3.1,7.8
			C82.2,208.7,80.7,208.7,79.3,208.2L79.3,208.2z"/>
		<path class="st6" d="M43.4,184.7c-0.4-0.5-0.6-1.1-0.6-1.8l0.8-13.4c0.3-3.4,3.3-5.9,6.7-5.6c3.2,0.3,5.7,3.1,5.6,6.3l0,0
			l-0.8,13.4c-0.1,1.3-1.2,2.4-2.6,2.3c0,0,0,0,0,0l-7.5-0.5C44.4,185.5,43.8,185.2,43.4,184.7z"/>
		<path class="st2" d="M164,112.9h-44c-2.7,0-4.8-2.2-4.8-4.8V60.3c0-2.7,2.2-4.8,4.8-4.8h44c2.7,0,4.8,2.2,4.8,4.8c0,0,0,0,0,0V108
			C168.8,110.7,166.7,112.8,164,112.9C164,112.9,164,112.9,164,112.9z M120,56.6c-2.1,0-3.8,1.7-3.8,3.8V108c0,2.1,1.7,3.8,3.7,3.8
			c0,0,0,0,0,0h44c2.1,0,3.7-1.7,3.8-3.8V60.3c0-2.1-1.7-3.8-3.8-3.8L120,56.6z"/>
		<path class="st2" d="M244.4,112.9h-44c-2.7,0-4.8-2.2-4.8-4.9c0,0,0,0,0,0V60.3c0-2.7,2.2-4.8,4.8-4.8l0,0h44
			c2.7,0,4.8,2.2,4.8,4.8c0,0,0,0,0,0V108C249.3,110.7,247.1,112.8,244.4,112.9C244.4,112.9,244.4,112.9,244.4,112.9z M200.4,56.6
			c-2.1,0-3.8,1.7-3.8,3.8V108c0,2.1,1.7,3.7,3.8,3.8h44c2.1,0,3.7-1.7,3.8-3.8V60.3c0-2.1-1.7-3.8-3.8-3.8L200.4,56.6z"/>
		<path class="st0" d="M128.9,75.3h-4.3c-1.3,0-2.4-1.1-2.4-2.4v-4.3c0-1.3,1.1-2.4,2.4-2.4c0,0,0,0,0,0h4.3c1.3,0,2.4,1.1,2.4,2.4
			v0v4.3C131.3,74.3,130.2,75.3,128.9,75.3C128.9,75.3,128.9,75.3,128.9,75.3z"/>
		<path class="st6" d="M128.9,88.7h-4.3c-1.3,0-2.4-1.1-2.4-2.4c0,0,0,0,0,0V82c0-1.3,1.1-2.4,2.4-2.4c0,0,0,0,0,0h4.3
			c1.3,0,2.4,1.1,2.4,2.4v0v4.3C131.3,87.6,130.2,88.7,128.9,88.7C128.9,88.7,128.9,88.7,128.9,88.7z"/>
		<path class="st0" d="M160.2,72.7h-20c-0.9,0-1.6-0.7-1.6-1.6l0,0v-0.7c0-0.9,0.7-1.6,1.6-1.6l0,0h20c0.9,0,1.6,0.7,1.6,1.6l0,0
			v0.7C161.8,72,161.1,72.7,160.2,72.7L160.2,72.7z"/>
		<path class="st6" d="M209.6,74.5h-4.3c-1.3,0-2.4-1.1-2.4-2.4v-4.3c0-1.3,1.1-2.4,2.4-2.4l0,0h4.3c1.3,0,2.4,1.1,2.4,2.4v0v4.3
			C212.1,73.4,211,74.5,209.6,74.5C209.7,74.5,209.7,74.5,209.6,74.5z"/>
		<path class="st6" d="M241,71.9h-20c-0.9,0-1.6-0.7-1.6-1.6l0,0v-0.7c0-0.9,0.7-1.6,1.6-1.6h20c0.9,0,1.6,0.7,1.6,1.6v0.7
			C242.6,71.2,241.9,71.9,241,71.9z"/>
		<path class="st0" d="M241,84.8h-37.2c-0.9,0-1.6-0.7-1.6-1.6l0,0v-0.7c0-0.9,0.7-1.6,1.6-1.6H241c0.9,0,1.6,0.7,1.6,1.6v0.7
			C242.6,84,241.9,84.8,241,84.8z"/>
		<path class="st6" d="M241,93.9h-37.2c-0.9,0-1.6-0.7-1.6-1.6l0,0v-0.7c0-0.9,0.7-1.6,1.6-1.6H241c0.9,0,1.6,0.7,1.6,1.6v0.7
			C242.6,93.2,241.9,93.9,241,93.9z"/>
		<path class="st6" d="M241,103h-37.2c-0.9,0-1.6-0.7-1.6-1.6v-0.7c0-0.9,0.7-1.6,1.6-1.6H241c0.9,0,1.6,0.7,1.6,1.6v0.7
			C242.6,102.3,241.9,103,241,103z"/>
		<path class="st2" d="M324.8,112.9h-44c-2.7,0-4.8-2.2-4.8-4.9c0,0,0,0,0,0V60.3c0-2.7,2.2-4.8,4.8-4.8h44c2.7,0,4.8,2.2,4.8,4.8
			V108C329.7,110.7,327.5,112.9,324.8,112.9C324.8,112.9,324.8,112.9,324.8,112.9z M280.8,56.6c-2.1,0-3.7,1.7-3.8,3.8V108
			c0,2.1,1.7,3.7,3.8,3.8h44c2.1,0,3.7-1.7,3.8-3.8V60.3c0-2.1-1.7-3.7-3.8-3.8L280.8,56.6z"/>
		<path class="st6" d="M321.4,71.9h-20c-0.9,0-1.6-0.7-1.6-1.6v-0.7c0-0.9,0.7-1.6,1.6-1.6h20c0.9,0,1.6,0.7,1.6,1.6v0.7
			C323,71.2,322.3,71.9,321.4,71.9z"/>
		<path class="st6" d="M321.4,84.8h-37.2c-0.9,0-1.6-0.7-1.6-1.6v-0.7c0-0.9,0.7-1.6,1.6-1.6h37.2c0.9,0,1.6,0.7,1.6,1.6v0.7
			C323,84,322.3,84.8,321.4,84.8z"/>
		<path class="st6" d="M321.4,93.9h-37.2c-0.9,0-1.6-0.7-1.6-1.6v-0.7c0-0.9,0.7-1.6,1.6-1.6h37.2c0.9,0,1.6,0.7,1.6,1.6v0.7
			C323,93.1,322.3,93.9,321.4,93.9z"/>
		<path class="st6" d="M321.4,103h-37.2c-0.9,0-1.6-0.7-1.6-1.6v-0.7c0-0.9,0.7-1.6,1.6-1.6h37.2c0.9,0,1.6,0.7,1.6,1.6v0.7
			C323,102.3,322.3,103,321.4,103z"/>
		<path class="st6" d="M160.2,86.1h-20c-0.9,0-1.6-0.7-1.6-1.6l0,0v-0.7c0-0.9,0.7-1.6,1.6-1.6l0,0h20c0.9,0,1.6,0.7,1.6,1.6l0,0
			v0.7C161.8,85.4,161.1,86.1,160.2,86.1L160.2,86.1z"/>
		<path class="st6" d="M128.9,102.1h-4.3c-1.3,0-2.4-1.1-2.4-2.4c0,0,0,0,0,0v-4.3c0-1.3,1-2.4,2.4-2.4c0,0,0,0,0,0h4.3
			c1.3,0,2.4,1.1,2.4,2.4v0v4.3C131.3,101,130.2,102.1,128.9,102.1C128.9,102.1,128.9,102.1,128.9,102.1z"/>
		<path class="st6" d="M160.2,99.5h-20c-0.9,0-1.6-0.7-1.6-1.6l0,0v-0.7c0-0.9,0.7-1.6,1.6-1.6l0,0h20c0.9,0,1.6,0.7,1.6,1.6l0,0
			v0.7C161.8,98.8,161.1,99.5,160.2,99.5L160.2,99.5z"/>
		<path class="st0" d="M292.6,69.4L292.6,69.4c0-2.7-2.2-4.8-4.8-4.8l0,0l0,0v4.9L292.6,69.4z"/>
		<path class="st6" d="M287.3,70v-4.9c-2.7,0-4.8,2.2-4.8,4.8c0,2.7,2.2,4.8,4.8,4.8c2.6,0,4.8-2.1,4.8-4.8H287.3z"/>
	</g>
</g>
</svg>
