<svg xmlns="http://www.w3.org/2000/svg" viewBox="0 0 450.87 324.33"><defs><style>.cls-1{fill:#1c3f59;}.cls-2{fill:#f2f2f2;}.cls-3{fill:#403e56;}.cls-4{fill:#f6b6b9;}.cls-5{fill:#302f42;}.cls-10,.cls-6{fill:#00adca;}.cls-7{fill:#a1626a;}.cls-8{fill:#cdcccc;}.cls-9{fill:#fff;}.cls-10{stroke:#1d1d1b;stroke-miterlimit:10;}</style></defs><g id="Layer_2" data-name="Layer 2"><g id="Capa_1" data-name="Capa 1"><g id="Capa_2" data-name="Capa 2"><g id="Capa_1-2" data-name="Capa 1-2"><path class="cls-1" d="M23,186c-.5-34.2-28.6-45.4-22-65.2,7.2-21.3,40.8-11.4,65.8-39.1,25.6-28.4,9.4-59.9,30.6-72.3,23.5-13.8,43.7,25,86.7,15.5C204.8,20.25,225,5.75,264.8,1c1.4-.2,2.2-.3,3.4-.4C280.1-.55,313.8-2,335,18.75c20.5,20.2,7.8,41.9,29.8,62.7,20.8,19.7,37.5,9.7,57.9,25.3,35.6,27.3,34.8,98.7,12.4,147.2-7.6,16.5-25.8,55.8-59.5,62.3-35.9,7-50.7-30.7-92.8-26.7-39.3,3.8-47.9,38.8-79.7,34.4-27.9-3.9-27.8-31.6-58.7-38.5-33.2-7.4-46.3,21.8-81.3,15.7-27.5-4.8-54.3-28.8-57.9-54.1C1.7,222.45,23.3,216,23,186Z"/><circle class="cls-2" cx="224.6" cy="34.25" r="3.5"/><circle class="cls-2" cx="224.6" cy="48.05" r="3.5"/><circle class="cls-2" cx="239.1" cy="34.25" r="3.5"/><circle class="cls-2" cx="239.1" cy="48.05" r="3.5"/><circle class="cls-2" cx="253.64" cy="34.23" r="3.5" transform="matrix(0.32, -0.95, 0.95, 0.32, 139.46, 263.29)"/><circle class="cls-2" cx="253.62" cy="48.04" r="3.5" transform="translate(127.84 273.45) rotate(-71.56)"/><circle class="cls-2" cx="253.59" cy="61.86" r="3.5" transform="translate(104.22 275.92) rotate(-68.8)"/><circle class="cls-2" cx="253.59" cy="75.66" r="3.5" transform="translate(101.61 292.31) rotate(-71.56)"/><circle class="cls-2" cx="268.1" cy="34.25" r="3.5"/><circle class="cls-2" cx="268.1" cy="48.05" r="3.5"/><circle class="cls-2" cx="268.1" cy="61.85" r="3.5"/><circle class="cls-2" cx="268.1" cy="75.65" r="3.5"/><circle class="cls-2" cx="282.6" cy="34.25" r="3.5"/><circle class="cls-2" cx="281.8" cy="46.85" r="3.5"/><circle class="cls-2" cx="297" cy="34.25" r="3.5"/><circle class="cls-2" cx="297" cy="48.05" r="3.5"/><path class="cls-3" d="M402.9,213.75H377.2c0,.7-26.5,1.3-26.5,1.3a5.73,5.73,0,0,0-1.1,1.1,6.72,6.72,0,0,0-1.6,4.3v1.1a6.7,6.7,0,0,0,6.7,6.7h48.2a6.7,6.7,0,0,0,6.7-6.7v-1.1A6.7,6.7,0,0,0,402.9,213.75Z"/><rect class="cls-3" x="375.5" y="227.95" width="7" height="45"/><path class="cls-3" d="M402.3,272.75c0,.8-10.6.3-23.6.3s-23.6.5-23.6-.3,10.6-6.7,23.6-6.7S402.3,272,402.3,272.75Z"/><polygon class="cls-4" points="343.9 266.85 337.3 266.85 334.2 241.45 343.9 241.45 343.9 266.85"/><path class="cls-5" d="M332.6,265h12.7v8H324.7a7.88,7.88,0,0,1,7.9-8Z"/><polygon class="cls-4" points="333.6 263.15 327.4 261.15 332 236.05 341.2 238.95 333.6 263.15"/><path class="cls-5" d="M323.4,258l12.1,3.8h0l-2.4,7.6h0l-19.7-6.2h0a8,8,0,0,1,10-5.2Z"/><path class="cls-5" d="M385.3,209.35a25.72,25.72,0,0,0-.8-3.8l-1.2-1.5-3.2-4H380c-.2,0-1.2.1-2.7.2h0l-3.4.3-1.1.1v5.6h6.7a1.3,1.3,0,0,1,1.3,1.2v.2a1.32,1.32,0,0,1-1.3,1.3H340.6a10.85,10.85,0,0,0-4.2,5.3c-2.3,10-6.4,28.6-7.6,34.1a2.49,2.49,0,0,0,.7,2.3,2.18,2.18,0,0,0,.8.5l4.8,1.8a1.27,1.27,0,0,0,.6.1h.2a2.47,2.47,0,0,0,2.3-1.6l3.8-10,5.9-15.4,2.3-6.1c2.7.6,25.3,5.6,32.9-2.4a9.48,9.48,0,0,0,1.7-2.7A14.71,14.71,0,0,0,385.3,209.35Z"/><path class="cls-5" d="M391.8,210.75a8.33,8.33,0,0,0-.4-1.5l-4.4-5.6h-.1c-.3,0-1.6.1-3.6.3-2.3.2-5.5.5-9.1,1h-.3l-1.1.1v1h6.7a1.3,1.3,0,0,1,1.3,1.2v.2a1.32,1.32,0,0,1-1.3,1.3H355.8c-1,.3-2,.7-3,1.1-5,2-8.8,4.6-9.5,8-.2,1.1-.5,2.4-.8,3.7-1.1,4.9-2.5,11-3.7,16.5h0c-.2,1.1-.5,2.2-.7,3.3-1,4.6-1.9,8.5-2.4,10.6v.2h0a2.46,2.46,0,0,0,.1,1.2h0a2.29,2.29,0,0,0,.7,1,1.61,1.61,0,0,0,.7.4l4.8,1.8a3.09,3.09,0,0,0,.8.2,2.66,2.66,0,0,0,1.2-.3,2.37,2.37,0,0,0,1.1-1.3l10.4-27.4,1.6-4.2c2.7.6,25.3,5.6,32.9-2.4a9.17,9.17,0,0,0,2.4-5.9A17.4,17.4,0,0,0,391.8,210.75Z"/><path class="cls-6" d="M391.2,163.45l-.3-.3a13.14,13.14,0,0,0-11.2-4,45.12,45.12,0,0,0-5.3,1,12.89,12.89,0,0,0-6,3.4,13.2,13.2,0,0,0-4,9.8v3.3h5.3a1.7,1.7,0,0,1,.7.1,3,3,0,0,1,2.3,2.9v25l1.1.3.3.1.4.1c1.1.3,2.1.7,3.2,1.1h1.8a1.3,1.3,0,0,1,1.3,1.2l1.1.4c1.2.5,2.4,1,3.5,1.5,1.5.7,2.7,1.3,3.8,1.9a2,2,0,0,0,1.1.3,2.39,2.39,0,0,0,1.4-.5l.2-.2a2.07,2.07,0,0,0,.7-2.1,77.11,77.11,0,0,1-.5-12.7c.1-3.6.5-7.2.9-10.8.2-1.9.5-3.8.7-5.6s.5-3.4.8-4.9A13.19,13.19,0,0,0,391.2,163.45Z"/><path class="cls-6" d="M369.3,164l-.9-.3a6.23,6.23,0,0,0-7.3,3.5l-3.7,8.5-.5,1.1h12.7a1.7,1.7,0,0,1,.7.1l.4-1,1.6-3.8A6,6,0,0,0,369.3,164Z"/><circle class="cls-4" cx="380.7" cy="141.85" r="13.2"/><path class="cls-4" d="M393.7,179.55l-7.5.2-.5,5.3-.1,1.2-11.8,5.3-1.1.5v9.4l1.1-.3,3.4-1h0l14.9-4.2.2-.1a5.79,5.79,0,0,0,4.2-5.6v-10.8Z"/><path class="cls-6" d="M396.2,169.15a6.16,6.16,0,0,0-12.3.7h0l.8,13.4a2.23,2.23,0,0,0,1,1.8,2.77,2.77,0,0,0,1.6.5l5.8-.4,1.7-.1a2.46,2.46,0,0,0,1.7-.8.35.35,0,0,0,.1-.2,3,3,0,0,0,.5-1.6Z"/><path class="cls-3" d="M374.4,205.15h-.7v-.1l-1.1.1v1h5C376.6,205.85,375.5,205.45,374.4,205.15Zm0,0h-.7v-.1l-1.1.1v1h5C376.6,205.85,375.5,205.45,374.4,205.15Zm5,0h-5.6v-25.5a4.08,4.08,0,0,0-2.9-3.9,4.25,4.25,0,0,0-1.1-.2H322.1a4,4,0,0,0-4,4V206a4,4,0,0,0,4,4h57.3a2.53,2.53,0,0,0,2.3-2.6,2.38,2.38,0,0,0-2.3-2.2Zm1.3,2.4a1.32,1.32,0,0,1-1.3,1.3H322a3.06,3.06,0,0,1-3-2.9v-26.3a2.93,2.93,0,0,1,3-2.9h47.7a1.7,1.7,0,0,1,.7.1,3,3,0,0,1,2.3,2.9v26.5h6.7a1.3,1.3,0,0,1,1.3,1.2v.1Zm-6.3-2.4h-.7v-.1l-1.1.1v1h5C376.6,205.85,375.5,205.45,374.4,205.15Z"/><circle class="cls-6" cx="345.9" cy="192.75" r="3.2"/><path class="cls-5" d="M377.9,136.65c-3,2.7-7.1,5.7-10.9,3.7a6.38,6.38,0,0,1-3-6.9c1-4.9,5.3-7.6,9.4-9.7,5.3-2.8,11.2-5.2,17.2-4.5s11.8,5.7,11.5,11.7c-.2,4.8-4.2,9.4-2.9,14s7,6.5,11.9,6.8,10.2-.2,14.1,2.8c4.9,3.8,4.9,11.7,1.3,16.9s-9.4,8-15.2,10.2c-7.7,2.9-16.2,5-24.1,2.9s-14.9-9.7-13.7-17.9c.5-3.4,2.3-6.5,4-9.6s3.5-6.1,3.9-9.6a9.24,9.24,0,0,0-2.7-7.9,2.55,2.55,0,0,1-.8-2.9Z"/><path class="cls-3" d="M7.2,273.65H421.8a.6.6,0,1,0,0-1.2H7.2a.58.58,0,0,0-.6.6h0a.65.65,0,0,0,.6.6Z"/><path class="cls-3" d="M28.3,220.45v1.1a6.7,6.7,0,0,0,6.7,6.7H83.3a6.7,6.7,0,0,0,6.7-6.7v-1.1a6.63,6.63,0,0,0-1.5-4.3,5.73,5.73,0,0,0-1.1-1.1s-26.5-.6-26.5-1.3H35a6.7,6.7,0,0,0-6.7,6.7Z"/><rect class="cls-3" x="55.4" y="227.95" width="7" height="45"/><path class="cls-3" d="M35.5,272.75c0,.8,10.6.3,23.6.3s23.6.5,23.6-.3S72.1,266,59.1,266,35.5,272,35.5,272.75Z"/><polygon class="cls-7" points="94.3 267.25 100.8 267.25 104 241.85 94.3 241.85 94.3 267.25"/><path class="cls-5" d="M113.5,273.35H92.9v-8h12.7a7.81,7.81,0,0,1,7.9,8Z"/><polygon class="cls-7" points="104.5 263.55 110.8 261.55 106.2 236.45 97 239.35 104.5 263.55"/><path class="cls-5" d="M124.7,263.55l-19.7,6.2h0l-2.4-7.6h0l12.1-3.8a8.06,8.06,0,0,1,10,5.2Z"/><path class="cls-5" d="M100.1,251.85l-12-31.6c-2.7.6-25.3,5.6-32.9-2.4-2.6-2.8-3.1-6.8-1.5-11.9l4.4-5.6h.1c1.7.1,41,2.3,43.7,14.1,2.3,10,6.4,28.6,7.6,34.1a2.39,2.39,0,0,1-1.5,2.8l-4.8,1.8a1.18,1.18,0,0,1-.8.1A2.17,2.17,0,0,1,100.1,251.85Z"/><path class="cls-5" d="M93.2,255.65l-12-31.6c-2.7.6-25.3,5.6-32.9-2.4-2.6-2.8-3.1-6.8-1.5-11.9l4.4-5.6h.1c1.7.1,41,2.3,43.7,14.1,2.3,10,6.4,28.6,7.6,34.1a2.39,2.39,0,0,1-1.5,2.8L96.3,257a2.36,2.36,0,0,1-3.1-1.3Z"/><path class="cls-7" d="M82.4,194.35a10.2,10.2,0,0,1-8.8-5l-3.8-6.5,9.1-5,3.9,5.3,26.2-2.8c.1-.2.3-.5.4-.7h0a5.92,5.92,0,1,1,1.7,8.7,2.09,2.09,0,0,1-.6-.4.78.78,0,0,1-.4-.4l-25,6.4A8.84,8.84,0,0,1,82.4,194.35Z"/><path class="cls-8" d="M46.6,211.35a2.51,2.51,0,0,1-1-2.3c1.5-9.8-.2-23.9-1.9-34a13.26,13.26,0,0,1,10.9-15.3,17,17,0,0,1,3.9-.1,45.12,45.12,0,0,1,5.3,1h0a13.1,13.1,0,0,1,10,13.1c-.2,9.7,1.7,21.9,2.6,26.6a2.56,2.56,0,0,1-.4,1.9,2.23,2.23,0,0,1-1.7.9c-9.6,1-19.8,5.6-25.1,8.3a2.43,2.43,0,0,1-2.6-.1Z"/><path class="cls-8" d="M72.4,186.05a2.1,2.1,0,0,1-1.3-1.3l-5.3-12.3a6.13,6.13,0,0,1,3.2-8.1,6.21,6.21,0,0,1,8.1,3.2h0l5.3,12.3a2.45,2.45,0,0,1-1.3,3.2l-6.9,3a2.77,2.77,0,0,1-1.8,0Z"/><circle class="cls-7" cx="57.5" cy="142.25" r="13.2"/><path class="cls-5" d="M49.5,154a2.09,2.09,0,0,1-3,.2h0a23.82,23.82,0,0,1-6.8-8.9c-1.7-4.1-2-9.1,0-12.9,1.7-3.2,4.6-5.3,7.5-7a15.33,15.33,0,0,1,3.7-1.6,4.71,4.71,0,0,1,3.8.8,3.91,3.91,0,0,1,1.5,3.9,12.36,12.36,0,0,1,5.2-3.9,6.87,6.87,0,0,1,4-.3c1.9.6,3.3,2.6,4.1,4.6a10.69,10.69,0,0,1,.7,5,6.11,6.11,0,0,1-2.3,4.1,6.57,6.57,0,0,1-5.3.5,54.37,54.37,0,0,0-5.4-1.5,5,5,0,0,0-4.9,1.9,8.69,8.69,0,0,0-1.1,4.1l-.8,7.5a10.76,10.76,0,0,1-.7,3.1A.52.52,0,0,1,49.5,154Z"/><path class="cls-8" d="M97.1,235.05H75.8a2.14,2.14,0,0,1-1.8-.9,2.39,2.39,0,0,1-.4-2,54.94,54.94,0,0,0,0-25.5,2.39,2.39,0,0,1,.4-2,2.43,2.43,0,0,1,1.8-.9H97.2a2.35,2.35,0,0,1,2.3,1.9,89.25,89.25,0,0,1,0,27.3A2.45,2.45,0,0,1,97.1,235.05Z"/><path class="cls-9" d="M80.7,215.55V215a1.58,1.58,0,0,1,1.6-1.6H93.5a1.58,1.58,0,0,1,1.6,1.6v.6a1.58,1.58,0,0,1-1.6,1.6H82.3a1.72,1.72,0,0,1-1.6-1.6Z"/><path class="cls-9" d="M80.7,222.15v-.6a1.58,1.58,0,0,1,1.6-1.6H93.5a1.58,1.58,0,0,1,1.6,1.6v.6a1.58,1.58,0,0,1-1.6,1.6H82.3a1.64,1.64,0,0,1-1.6-1.6Z"/><path class="cls-10" d="M87.6,196.35a2.39,2.39,0,0,1-.4-2,56.65,56.65,0,0,0,0-25.9,2.39,2.39,0,0,1,.4-2,2.14,2.14,0,0,1,1.8-.9h21.7a2.36,2.36,0,0,1,2.3,2,92.53,92.53,0,0,1,0,27.8,2.36,2.36,0,0,1-2.3,2H89.5A2.28,2.28,0,0,1,87.6,196.35Z"/><path class="cls-9" d="M107,177.25H95.6a1.58,1.58,0,0,1-1.6-1.6V175a1.58,1.58,0,0,1,1.6-1.6H107a1.58,1.58,0,0,1,1.6,1.6v.7A1.58,1.58,0,0,1,107,177.25Z"/><path class="cls-9" d="M107,184H95.6a1.58,1.58,0,0,1-1.6-1.6h0v-.7a1.58,1.58,0,0,1,1.6-1.6H107a1.58,1.58,0,0,1,1.6,1.6h0v.7A1.58,1.58,0,0,1,107,184Z"/><path class="cls-7" d="M77.7,208.15a6,6,0,0,1-3.5-3.3c-.1-.2-.1-.4-.2-.5l-28-8a5.79,5.79,0,0,1-4.2-5.6L41.6,180l10.3.3.7,6.5,24,10.8c.2-.1.5-.3.7-.4h0a5.94,5.94,0,1,1,4.7,10.9,5.81,5.81,0,0,1-4.3.1Z"/><path class="cls-8" d="M41.8,184.65a2.79,2.79,0,0,1-.6-1.8l.8-13.4a6.16,6.16,0,0,1,12.3.7h0l-.8,13.4a2.46,2.46,0,0,1-2.6,2.3h0l-7.5-.5A1.73,1.73,0,0,1,41.8,184.65Z"/><path class="cls-3" d="M162.4,112.85h-44a4.8,4.8,0,0,1-4.8-4.8V60.25a4.8,4.8,0,0,1,4.8-4.8h44a4.8,4.8,0,0,1,4.8,4.8h0V108a4.89,4.89,0,0,1-4.8,4.9Zm-44-56.3a3.8,3.8,0,0,0-3.8,3.8V108a3.78,3.78,0,0,0,3.7,3.8h44a3.86,3.86,0,0,0,3.8-3.8V60.25a3.8,3.8,0,0,0-3.8-3.8Z"/><path class="cls-3" d="M242.8,112.85h-44A4.82,4.82,0,0,1,194,108h0V60.25a4.8,4.8,0,0,1,4.8-4.8h44a4.8,4.8,0,0,1,4.8,4.8h0V108a4.82,4.82,0,0,1-4.8,4.9Zm-44-56.3a3.8,3.8,0,0,0-3.8,3.8V108a3.86,3.86,0,0,0,3.8,3.8h44a3.86,3.86,0,0,0,3.8-3.8V60.25a3.8,3.8,0,0,0-3.8-3.8Z"/><path class="cls-6" d="M127.3,75.25H123a2.43,2.43,0,0,1-2.4-2.4v-4.3a2.43,2.43,0,0,1,2.4-2.4h4.3a2.43,2.43,0,0,1,2.4,2.4h0v4.3a2.37,2.37,0,0,1-2.4,2.4Z"/><path class="cls-8" d="M127.3,88.65H123a2.43,2.43,0,0,1-2.4-2.4h0V82a2.43,2.43,0,0,1,2.4-2.4h4.3a2.43,2.43,0,0,1,2.4,2.4h0v4.3a2.43,2.43,0,0,1-2.4,2.4Z"/><path class="cls-6" d="M158.6,72.65h-20a1.58,1.58,0,0,1-1.6-1.6h0v-.7a1.58,1.58,0,0,1,1.6-1.6h20a1.58,1.58,0,0,1,1.6,1.6h0v.7a1.58,1.58,0,0,1-1.6,1.6Z"/><path class="cls-8" d="M208,74.45h-4.3a2.43,2.43,0,0,1-2.4-2.4v-4.3a2.43,2.43,0,0,1,2.4-2.4H208a2.43,2.43,0,0,1,2.4,2.4h0v4.3a2.31,2.31,0,0,1-2.4,2.4Z"/><path class="cls-8" d="M239.4,71.85h-20a1.58,1.58,0,0,1-1.6-1.6h0v-.7a1.58,1.58,0,0,1,1.6-1.6h20a1.58,1.58,0,0,1,1.6,1.6v.7A1.58,1.58,0,0,1,239.4,71.85Z"/><path class="cls-6" d="M239.4,84.75H202.2a1.58,1.58,0,0,1-1.6-1.6h0v-.7a1.58,1.58,0,0,1,1.6-1.6h37.2a1.58,1.58,0,0,1,1.6,1.6v.7A1.64,1.64,0,0,1,239.4,84.75Z"/><path class="cls-8" d="M239.4,93.85H202.2a1.58,1.58,0,0,1-1.6-1.6h0v-.7a1.58,1.58,0,0,1,1.6-1.6h37.2a1.58,1.58,0,0,1,1.6,1.6v.7A1.58,1.58,0,0,1,239.4,93.85Z"/><path class="cls-8" d="M239.4,103H202.2a1.58,1.58,0,0,1-1.6-1.6v-.7a1.58,1.58,0,0,1,1.6-1.6h37.2a1.58,1.58,0,0,1,1.6,1.6v.7A1.58,1.58,0,0,1,239.4,103Z"/><path class="cls-3" d="M323.2,112.85h-44a4.82,4.82,0,0,1-4.8-4.9h0V60.25a4.8,4.8,0,0,1,4.8-4.8h44a4.8,4.8,0,0,1,4.8,4.8V108a4.76,4.76,0,0,1-4.8,4.9Zm-44-56.3a3.86,3.86,0,0,0-3.8,3.8V108a3.86,3.86,0,0,0,3.8,3.8h44A3.86,3.86,0,0,0,327,108V60.25a3.86,3.86,0,0,0-3.8-3.8Z"/><path class="cls-8" d="M319.8,71.85h-20a1.58,1.58,0,0,1-1.6-1.6v-.7a1.58,1.58,0,0,1,1.6-1.6h20a1.58,1.58,0,0,1,1.6,1.6v.7A1.58,1.58,0,0,1,319.8,71.85Z"/><path class="cls-8" d="M319.8,84.75H282.6a1.58,1.58,0,0,1-1.6-1.6v-.7a1.58,1.58,0,0,1,1.6-1.6h37.2a1.58,1.58,0,0,1,1.6,1.6v.7A1.64,1.64,0,0,1,319.8,84.75Z"/><path class="cls-8" d="M319.8,93.85H282.6a1.58,1.58,0,0,1-1.6-1.6v-.7a1.58,1.58,0,0,1,1.6-1.6h37.2a1.58,1.58,0,0,1,1.6,1.6v.7A1.64,1.64,0,0,1,319.8,93.85Z"/><path class="cls-8" d="M319.8,103H282.6a1.58,1.58,0,0,1-1.6-1.6v-.7a1.58,1.58,0,0,1,1.6-1.6h37.2a1.58,1.58,0,0,1,1.6,1.6v.7A1.58,1.58,0,0,1,319.8,103Z"/><path class="cls-8" d="M158.6,86.05h-20a1.58,1.58,0,0,1-1.6-1.6h0v-.7a1.58,1.58,0,0,1,1.6-1.6h20a1.58,1.58,0,0,1,1.6,1.6h0v.7a1.58,1.58,0,0,1-1.6,1.6Z"/><path class="cls-8" d="M127.3,102.05H123a2.43,2.43,0,0,1-2.4-2.4h0v-4.3A2.37,2.37,0,0,1,123,93h4.3a2.43,2.43,0,0,1,2.4,2.4h0v4.3a2.43,2.43,0,0,1-2.4,2.4Z"/><path class="cls-8" d="M158.6,99.45h-20a1.58,1.58,0,0,1-1.6-1.6h0v-.7a1.58,1.58,0,0,1,1.6-1.6h20a1.58,1.58,0,0,1,1.6,1.6h0v.7a1.58,1.58,0,0,1-1.6,1.6Z"/><path class="cls-6" d="M291,69.35h0a4.8,4.8,0,0,0-4.8-4.8h0v4.9Z"/><path class="cls-8" d="M285.7,70v-4.9a4.8,4.8,0,1,0,4.8,4.8h-4.8Z"/></g></g></g></g></svg>