<?xml version="1.0" encoding="utf-8"?>
<!-- Generator: Adobe Illustrator 25.4.1, SVG Export Plug-In . SVG Version: 6.00 Build 0)  -->
<svg version="1.1" id="Layer_1" xmlns="http://www.w3.org/2000/svg" xmlns:xlink="http://www.w3.org/1999/xlink" x="0px" y="0px"
	 viewBox="0 0 1920 1080" style="enable-background:new 0 0 1920 1080;" xml:space="preserve">
<style type="text/css">
	.st0{fill:#1C3F59;}
</style>
<g id="Layer_2_00000160158075696200392900000009161813991158427271_">
	<g id="Capa_1">
		<g id="Capa_2">
			<g id="Capa_1-2">
				<path class="st0" d="M0,225.6c182.4,45.4,246.2,28,265.5-3.1c16.7-26.9,1.5-66,28-85c23.6-16.9,45.3,7.2,95,1
					c51.7-6.5,99.9-41.6,121-86c6.4-13.4,16.2-34,12-52c0-0.2-0.1-0.3-0.1-0.5H0V225.6z"/>
				<path class="st0" d="M785,1004c-25.5-7.6-38.5,5.3-67,7c-68.7,4.2-84-64.6-156-83c-85.2-21.8-139.1,55.4-189,22
					c-26.4-17.6-14.6-41.3-44-95c-8.6-15.7-52-95-135-121C99.7,704.5,13.5,762.6,0,772v308h848C851.7,1061.2,823.1,1015.3,785,1004z
					"/>
				<path class="st0" d="M1430,0c-18.8,36.3-20.2,106.1,11,129c21.7,16,46.4-0.3,65,18c19.9,19.6,0.2,46.9,12,101
					c2.8,12.7,16.2,74.2,54,86c25.4,7.9,37.7-14.2,74-15c52.9-1.1,93.1,44.6,96,48c50.5,59,6.2,121.8,50,176
					c29.4,36.4,89.2,57.2,128,43V0H1430z"/>
				<path class="st0" d="M1920,859c-45.8,26.2-90.6,61.6-90,103c0.5,33.9,31.1,55.6,22,69c-13,19-74.1-26.3-142-3
					c-34.7,11.9-31.6,28.2-62,33c-47.8,7.5-65.3-31.1-114-24c-35.5,5.2-31.9,26.4-69,30c-35.9,3.5-53.8-15.1-90-5
					c-12.7,3.5-33.3,12.1-33,18h578V859z"/>
			</g>
		</g>
	</g>
</g>
</svg>
