<svg xmlns="http://www.w3.org/2000/svg" viewBox="0 0 127.25 83.5"><defs><style>.cls-1{fill:#16365b;}.cls-2{fill:#00adca;}</style></defs><g id="Capa_2" data-name="Capa 2"><g id="Capa_1-2" data-name="Capa 1"><path class="cls-1" d="M0,70.41V29.09c0-4,3.66-7.31,8.16-7.31h6.47a8.87,8.87,0,0,1,5.77,2.14,6.92,6.92,0,0,1,2.4,5.17V70.41c0,4-3.66,7.32-8.17,7.32H8.16C3.66,77.73,0,74.45,0,70.41Z"/><rect class="cls-1" x="9.92" y="25.48" width="99.77" height="17.76" rx="8.88"/><rect class="cls-1" x="15.1" y="38.21" width="69.42" height="17.76" rx="8.88"/><rect class="cls-1" x="14.53" y="51.82" width="65.44" height="17.76" rx="8.88"/><path class="cls-1" d="M13.11,67.22c.78-.78,1.72-.94,6.26-1.19,2.85-.15,5.28-.24,7.11-.29H64.6a8.89,8.89,0,0,1,0,17.76H26.48c-.64,0-10.64-.62-13.65-7.7C11.78,73.35,11.16,69.15,13.11,67.22Z"/><rect class="cls-1" x="7.52" y="10.2" width="52.81" height="17.76" rx="8.88" transform="translate(-4.77 23.32) rotate(-35.6)"/><path class="cls-1" d="M46,13.63c1.53.7-2.91,10.51,1.19,13.92C49,29,51.28,28.41,51.36,29c.21,1.47-12.74,6.76-15.69,3.25C32.16,28.1,44,12.71,46,13.63Z"/><rect class="cls-2" x="114.21" y="13.32" width="2.05" height="11.87" rx="1.03" transform="translate(55.84 -81.35) rotate(49.96)"/><rect class="cls-2" x="114.07" y="41.27" width="2.05" height="11.87" rx="1.03" transform="translate(221.36 -17.47) rotate(126.38)"/><rect class="cls-2" x="120.28" y="27.94" width="2.05" height="11.87" rx="1.03" transform="translate(155.19 -87.43) rotate(90)"/></g></g></svg>