<?xml version="1.0" encoding="utf-8"?>
<!-- Generator: Adobe Illustrator 25.4.1, SVG Export Plug-In . SVG Version: 6.00 Build 0)  -->
<svg version="1.1" id="Layer_1" xmlns="http://www.w3.org/2000/svg" xmlns:xlink="http://www.w3.org/1999/xlink" x="0px" y="0px"
	 viewBox="0 0 378.9 139.2" style="enable-background:new 0 0 378.9 139.2;" xml:space="preserve">
<style type="text/css">
	.st0{fill:#FFFFFF;}
	.st1{fill:#00ADCA;}
	.st2{fill:#FFFFFF;stroke:#FFFFFF;stroke-width:7;stroke-miterlimit:10;}
</style>
<g id="Capa_2">
	<g id="Capa_1-2">
		<path class="st0" d="M70.4,127.2H29.1c-4,0-7.3-3.7-7.3-8.2v-6.5c0-2.1,0.8-4.2,2.1-5.8c1.3-1.5,3.2-2.4,5.2-2.4h41.3
			c4,0,7.3,3.7,7.3,8.2v6.5C77.7,123.6,74.4,127.2,70.4,127.2z"/>
		<path class="st0" d="M34.4,17.6L34.4,17.6c4.9,0,8.9,4,8.9,8.9v82c0,4.9-4,8.9-8.9,8.9h0c-4.9,0-8.9-4-8.9-8.9v-82
			C25.5,21.5,29.5,17.6,34.4,17.6z"/>
		<path class="st0" d="M47.1,42.7L47.1,42.7c4.9,0,8.9,4,8.9,8.9v51.7c0,4.9-4,8.9-8.9,8.9l0,0c-4.9,0-8.9-4-8.9-8.9V51.6
			C38.2,46.7,42.2,42.7,47.1,42.7z"/>
		<path class="st0" d="M60.7,47.3L60.7,47.3c4.9,0,8.9,4,8.9,8.9v47.7c0,4.9-4,8.9-8.9,8.9l0,0c-4.9,0-8.9-4-8.9-8.9V56.2
			C51.8,51.3,55.8,47.3,60.7,47.3z"/>
		<path class="st0" d="M67.2,114.1c-0.8-0.8-0.9-1.7-1.2-6.3c-0.2-2.9-0.2-5.3-0.3-7.1V62.6c0.2-4.9,4.4-8.7,9.3-8.5
			c4.6,0.2,8.2,3.9,8.5,8.5v38.1c0,0.6-0.6,10.6-7.7,13.7C73.3,115.5,69.2,116.1,67.2,114.1z"/>
		<path class="st0" d="M3.7,71.9L3.7,71.9c4-2.9,9.5-1.9,12.4,2.1l20.4,28.5c2.9,4,1.9,9.5-2.1,12.4l0,0c-4,2.9-9.5,1.9-12.4-2.1
			L1.7,84.2C-1.2,80.3-0.3,74.7,3.7,71.9z"/>
		<path class="st0" d="M13.6,81.2c0.7-1.5,10.5,2.9,13.9-1.2c1.5-1.8,0.9-4,1.5-4.2c1.5-0.2,6.8,12.8,3.2,15.7
			C28.1,95.1,12.7,83.2,13.6,81.2z"/>
		<path class="st0" d="M160.6,62.9v40.1h6.8v6h-20.8v-6h6.8v-40h-0.4l-14,46.1h-8.4l-13.3-46H117V103h6.1v6h-20.3v-6h6.8V63h-6.8v-6
			h20.3L135,99.9l13.5-43.1h18.9v6L160.6,62.9z"/>
		<path class="st0" d="M207.1,75.1v5.6h-1c-1.4,0-3.1,0.4-3.7,3l-6.8,25.2l-3.4,13.7l-12.8-0.1V117h7.4l2.2-8.1H184l-6.8-25.2
			c-0.7-2.6-2.4-3-3.7-3h-1v-5.7h3c5.4,0,6.8,1.9,7.8,5.6l6.1,22.6h0.8l6.2-22.6c1.1-3.8,2.4-5.6,7.8-5.6H207.1z"/>
		<path class="st0" d="M250.3,71.5h-6.4v-8.3h-10v39.7h8.4v6h-24.1v-6h8.4V63.2h-9.9v8.3h-6.4V56.8h40.1V71.5z"/>
		<path class="st0" d="M286.6,103.3v5.2c-1.6,0.3-3.3,0.4-4.9,0.4c-3,0.2-5.8-1.7-6.6-4.6c-2.4,3.2-6.2,5.1-10.2,5.2
			c-6,0-9.3-3.7-9.4-11.3l-0.1-14c0-2.7-0.8-3.5-3.4-3.5h-2.1v-5.6c1.7-0.2,3.5-0.2,5.2-0.2c4.5,0,7.5,2.5,7.5,7.8v14.3
			c0,3.7,1.9,5.7,4.1,5.7c4.7,0,7.1-3.1,7.1-9.2V80.7h-5.3v-5.6h12.5v24.4c0,2.7,1.2,3.8,3.9,3.8H286.6z"/>
		<path class="st0" d="M314.6,86.7v-5.9c-0.2-0.1-0.5-0.1-0.7-0.1c-4,0-7.6,3.8-7.6,9.9v12.7h8.4v5.6h-22.3v-5.6h6.9V80.7h-6.9v-5.6
			h12.9l0.9,5.2c2.2-3.3,5.2-5.8,9.3-5.8c2.1-0.1,4.2,0.5,5.9,1.8l-1.8,10.4H314.6z"/>
		<path class="st0" d="M364.1,103.3v5.2c-1.4,0.3-2.7,0.4-4.1,0.4c-3.8,0-7.8-2-7.8-8.7V87.3c0-4-2.4-5.9-5.1-5.9
			c-4.6,0-7,3.1-7,9.2v12.7h6.8v5.6h-20v-5.6h6V80.7h-6v-5.6h11.7l1.1,5.6c1.7-3.5,4.6-6.2,9.4-6.2c5.6,0,10.3,3.7,10.3,10.8
			l0.1,14.2c0,2.7,1.2,3.8,3.9,3.8H364.1z"/>
		<path class="st0" d="M369,106c0-2.7,2.2-4.8,4.9-4.9c2.7-0.1,5,2,5.1,4.6s-2,5-4.6,5.1c-0.1,0-0.3,0-0.4,0
			C371.2,110.8,369.1,108.7,369,106z M378.2,56.8l-1.1,27.3v13.2h-6.5V84.1l-1.1-27.3L378.2,56.8z"/>
		<path class="st1" d="M15.4,7.5L15.4,7.5c0.4-0.4,1.1-0.3,1.4,0.1l6.3,7.5c0.4,0.4,0.3,1.1-0.1,1.4l0,0c-0.4,0.4-1.1,0.3-1.4-0.1
			l-6.3-7.5C14.9,8.5,15,7.8,15.4,7.5z"/>
		<path class="st1" d="M50.7,7.4L50.7,7.4c0.5,0.3,0.6,1,0.2,1.4l-5.8,7.9c-0.3,0.5-1,0.6-1.4,0.2l0,0c-0.5-0.3-0.6-1-0.2-1.4
			l5.8-7.9C49.6,7.1,50.3,7,50.7,7.4z"/>
		<path class="st1" d="M33.9,0L33.9,0c0.6,0,1,0.5,1,1v9.8c0,0.6-0.5,1-1,1h0c-0.6,0-1-0.5-1-1V1C32.8,0.5,33.3,0,33.9,0z"/>
		<line class="st2" x1="136" y1="135.8" x2="378.5" y2="135.8"/>
	</g>
</g>
</svg>
