<svg xmlns="http://www.w3.org/2000/svg" viewBox="0 0 378.86 139.25"><defs><style>.cls-1{fill:#16365b;}.cls-2{fill:#00adca;}.cls-3{fill:none;stroke:#16365b;stroke-miterlimit:10;stroke-width:7px;}</style></defs><g id="Capa_2" data-name="Capa 2"><g id="Capa_1-2" data-name="Capa 1"><path class="cls-1" d="M70.41,127.25H29.09c-4,0-7.31-3.66-7.31-8.17v-6.46a8.89,8.89,0,0,1,2.14-5.78,7,7,0,0,1,5.17-2.39H70.41c4,0,7.32,3.66,7.32,8.17v6.46C77.73,123.59,74.45,127.25,70.41,127.25Z"/><rect class="cls-1" x="25.48" y="17.56" width="17.76" height="99.77" rx="8.88"/><rect class="cls-1" x="38.21" y="42.73" width="17.76" height="69.42" rx="8.88"/><rect class="cls-1" x="51.82" y="47.28" width="17.76" height="65.44" rx="8.88"/><path class="cls-1" d="M67.22,114.14c-.78-.78-.94-1.72-1.19-6.26-.15-2.86-.24-5.28-.29-7.11V62.64a8.89,8.89,0,0,1,17.76,0v38.13c0,.63-.62,10.64-7.7,13.65C73.35,115.46,69.15,116.09,67.22,114.14Z"/><rect class="cls-1" x="10.2" y="66.92" width="17.76" height="52.81" rx="8.88" transform="translate(-50.76 28.55) rotate(-35.6)"/><path class="cls-1" d="M13.63,81.21c.7-1.53,10.51,2.92,13.92-1.18C29,78.26,28.41,76,29,75.88c1.47-.2,6.76,12.75,3.25,15.69C28.1,95.09,12.71,83.24,13.63,81.21Z"/><path class="cls-1" d="M160.59,62.86v40.05h6.84v6H146.61v-6h6.84v-40h-.38l-14,46.05h-8.36l-13.3-46H117v40.05h6.08v6H102.75v-6h6.84v-40h-6.84v-6h20.3L135,99.94l13.53-43.09h18.92v6Z"/><path class="cls-1" d="M207.1,75.09v5.63h-1c-1.37,0-3.05.45-3.73,3l-6.84,25.15-3.42,13.68-12.77-.07V117h7.37l2.21-8.06H184l-6.84-25.15c-.69-2.59-2.36-3-3.73-3h-1V75.09h3c5.4,0,6.84,1.9,7.83,5.63l6.15,22.57h.76l6.16-22.57c1.06-3.8,2.43-5.63,7.83-5.63Z"/><path class="cls-1" d="M250.27,71.52h-6.38V63.23h-10v39.68h8.36v6H218.12v-6h8.36V63.23h-9.95v8.29h-6.39V56.85h40.13Z"/><path class="cls-1" d="M286.6,103.29v5.24a30.27,30.27,0,0,1-4.94.38,6.4,6.4,0,0,1-6.61-4.56,13,13,0,0,1-10.19,5.17c-6,0-9.27-3.72-9.35-11.32l-.07-14c0-2.66-.76-3.49-3.42-3.49h-2.13V75.09a48.24,48.24,0,0,1,5.24-.23c4.49,0,7.53,2.51,7.53,7.76V96.9c0,3.73,1.9,5.71,4.1,5.71,4.71,0,7.15-3.12,7.15-9.2V80.72h-5.33V75.09h12.55v24.4c0,2.74,1.21,3.8,3.87,3.8Z"/><path class="cls-1" d="M314.56,86.72V80.79a2.22,2.22,0,0,0-.68-.07c-4,0-7.6,3.8-7.6,9.88v12.69h8.36v5.62H292.29v-5.62h6.85V80.72h-6.85V75.09h12.85l.91,5.17c2.21-3.34,5.25-5.78,9.27-5.78a9.17,9.17,0,0,1,5.93,1.83L319.5,86.72Z"/><path class="cls-1" d="M364.12,103.29v5.24a20.32,20.32,0,0,1-4.11.38c-3.8,0-7.75-2-7.75-8.66V87.33c0-4-2.36-5.93-5.09-5.93-4.64,0-7,3.12-7,9.2v12.69H347v5.62H327v-5.62H333V80.72H327V75.09h11.71l1.06,5.63c1.67-3.5,4.56-6.24,9.42-6.24,5.63,0,10.27,3.73,10.27,10.8l.07,14.21c0,2.74,1.22,3.8,3.88,3.8Z"/><path class="cls-1" d="M369.05,106a4.91,4.91,0,0,1,4.87-4.87,4.87,4.87,0,1,1,0,9.73A4.9,4.9,0,0,1,369.05,106Zm9.2-49.18-1.06,27.29V97.36h-6.54V84.14l-1.06-27.29Z"/><rect class="cls-2" x="18.23" y="6.07" width="2.05" height="11.87" rx="1.03" transform="translate(-3.21 15.21) rotate(-40.04)"/><rect class="cls-2" x="46.18" y="6.22" width="2.05" height="11.87" rx="1.03" transform="translate(16.4 -25.63) rotate(36.38)"/><rect class="cls-2" x="32.85" width="2.05" height="11.87" rx="1.03"/><line class="cls-3" x1="136" y1="135.75" x2="378.5" y2="135.75"/></g></g></svg>