<svg xmlns="http://www.w3.org/2000/svg" viewBox="0 0 583.41 429.83"><defs><style>.cls-1{fill:#16365b;}.cls-2{fill:#00adca;}.cls-3{fill:none;stroke:#16365b;stroke-miterlimit:10;stroke-width:7px;}</style></defs><g id="Capa_2" data-name="Capa 2"><g id="Capa_1-2" data-name="Capa 1"><path class="cls-1" d="M237.84,429.83H98.27c-13.65,0-24.72-12.35-24.72-27.58V380.41c0-1.84.17-11.61,7.24-19.51a23.44,23.44,0,0,1,17.48-8.07H237.84c13.65,0,24.71,12.34,24.71,27.58v21.84C262.55,417.48,251.49,429.83,237.84,429.83Z"/><rect class="cls-1" x="86.05" y="59.33" width="60" height="337" rx="30"/><rect class="cls-1" x="129.05" y="144.33" width="60" height="234.49" rx="30"/><rect class="cls-1" x="175.05" y="159.7" width="60" height="221.04" rx="30"/><path class="cls-1" d="M227.05,385.54c-2.61-2.63-3.16-5.81-4-21.14-.52-9.64-.82-17.83-1-24V211.6c0-15.93,13.44-28.83,30-28.83s30,12.9,30,28.83V340.37c-.09,2.16-2.09,35.95-26,46.13C247.78,390,233.59,392.13,227.05,385.54Z"/><rect class="cls-1" x="34.47" y="226.03" width="60" height="178.4" rx="30" transform="translate(-171.47 96.45) rotate(-35.6)"/><path class="cls-1" d="M46.05,274.33c2.35-5.17,35.49,9.84,47-4,5-6,2.93-13.72,5-14,5-.69,22.86,43.05,11,53C94.91,321.2,43,281.16,46.05,274.33Z"/><path class="cls-1" d="M365.15,289.43v40.06H372v6H351.16v-6H358V289.43h-.38l-14,46.06h-8.36L322,289.43h-.38v40.06h6.08v6H307.31v-6h6.84V289.43h-6.84v-6H327.6l11.93,43.09,13.53-43.09H372v6Z"/><path class="cls-1" d="M411.66,301.67v5.63h-1c-1.37,0-3,.45-3.73,3l-6.84,25.15-3.42,13.68-12.76-.07v-5.55h7.37l2.2-8.06h-4.94l-6.84-25.15c-.68-2.59-2.35-3-3.72-3h-1v-5.63h3c5.4,0,6.84,1.9,7.83,5.63L394,329.87h.76l6.15-22.57c1.07-3.81,2.44-5.63,7.83-5.63Z"/><path class="cls-1" d="M454.82,298.1h-6.38v-8.29h-10v39.68h8.36v6H422.68v-6H431V289.81h-10v8.29h-6.39V283.43h40.13Z"/><path class="cls-1" d="M491.15,329.87v5.24a30.09,30.09,0,0,1-4.94.38,6.4,6.4,0,0,1-6.61-4.56,12.93,12.93,0,0,1-10.18,5.17c-6,0-9.28-3.72-9.35-11.32l-.08-14c0-2.66-.76-3.49-3.42-3.49h-2.13v-5.63a48.31,48.31,0,0,1,5.25-.23c4.48,0,7.52,2.51,7.52,7.75v14.29c0,3.73,1.9,5.7,4.1,5.7,4.72,0,7.15-3.11,7.15-9.19V307.3h-5.32v-5.63h12.54v24.4c0,2.73,1.22,3.8,3.88,3.8Z"/><path class="cls-1" d="M519.12,313.3v-5.93a2.32,2.32,0,0,0-.69-.07c-4,0-7.6,3.8-7.6,9.88v12.69h8.36v5.62H496.85v-5.62h6.84V307.3h-6.84v-5.63h12.84l.92,5.17c2.2-3.35,5.24-5.78,9.27-5.78a9.19,9.19,0,0,1,5.93,1.83l-1.75,10.41Z"/><path class="cls-1" d="M568.67,329.87v5.24a20.21,20.21,0,0,1-4.1.38c-3.8,0-7.76-2-7.76-8.66V313.91c0-4-2.35-5.93-5.09-5.93-4.63,0-7,3.12-7,9.2v12.69h6.84v5.62H531.51v-5.62h6.08V307.3h-6.08v-5.63h11.7l1.06,5.63c1.68-3.5,4.56-6.24,9.43-6.24,5.62,0,10.26,3.73,10.26,10.79l.08,14.22c0,2.73,1.21,3.8,3.87,3.8Z"/><path class="cls-1" d="M573.61,332.6a4.89,4.89,0,0,1,4.86-4.86,4.87,4.87,0,1,1,0,9.73A4.9,4.9,0,0,1,573.61,332.6Zm9.19-49.17-1.06,27.29v13.22H575.2V310.72l-1.06-27.29Z"/><rect class="cls-2" x="61.59" y="20.51" width="6.94" height="40.1" rx="3.47" transform="translate(-10.85 51.36) rotate(-40.04)"/><rect class="cls-2" x="155.97" y="21" width="6.94" height="40.1" rx="3.47" transform="translate(55.41 -86.56) rotate(36.38)"/><rect class="cls-2" x="110.97" width="6.94" height="40.1" rx="3.47"/><line class="cls-3" x1="340.55" y1="362.33" x2="583.05" y2="362.33"/></g></g></svg>